<svg width="108" height="108" viewBox="0 0 108 108" fill="none" xmlns="http://www.w3.org/2000/svg">
<rect x="9" y="9" width="90" height="90" rx="45" fill="#2FC7A1"/>
<g clip-path="url(#clip0_2_1037)">
<path d="M50.31 69.0401C51.1633 69.0401 51.8833 68.7201 52.47 68.0801C53.0567 67.4401 53.35 66.6667 53.35 65.7601C53.35 64.8534 53.0567 64.1067 52.47 63.5201C51.8833 62.9334 51.1367 62.6401 50.23 62.6401C49.3233 62.6401 48.5767 62.9334 47.99 63.5201C47.4033 64.1067 47.11 64.8534 47.11 65.7601C47.11 66.6667 47.4033 67.4401 47.99 68.0801C48.5767 68.7201 49.35 69.0401 50.31 69.0401ZM50.31 63.9201C50.7367 63.9201 51.1367 64.1067 51.51 64.4801C51.8833 64.8534 52.07 65.2801 52.07 65.7601C52.07 66.2401 51.8833 66.6667 51.51 67.0401C51.1367 67.4134 50.71 67.6001 50.23 67.6001C49.75 67.6001 49.3233 67.4134 48.95 67.0401C48.5767 66.6667 48.39 66.2401 48.39 65.7601C48.39 65.2801 48.5767 64.8534 48.95 64.4801C49.3233 64.1067 49.7767 63.9201 50.31 63.9201ZM44.87 71.6001V75.9201C44.87 76.1334 44.95 76.2934 45.11 76.4001C45.27 76.5067 45.4033 76.5601 45.51 76.5601H54.95C55.0567 76.5601 55.19 76.5067 55.35 76.4001C55.51 76.2934 55.59 76.1334 55.59 75.9201V71.6001C55.59 70.7467 55.2967 70.0267 54.71 69.4401C54.1233 68.8534 53.4567 68.6134 52.71 68.7201C52.39 68.6134 52.1767 68.6667 52.07 68.8801C51.9633 69.0934 51.8033 69.2534 51.59 69.3601C51.0567 69.7867 50.4967 69.9467 49.91 69.8401C49.3233 69.7334 48.8167 69.4134 48.39 68.8801C48.2833 68.6667 48.07 68.6134 47.75 68.7201C47.0033 68.6134 46.3367 68.8534 45.75 69.4401C45.1633 70.0267 44.87 70.7467 44.87 71.6001ZM46.31 71.6001C46.31 71.1734 46.4167 70.8267 46.63 70.5601C46.8433 70.2934 47.1633 70.1067 47.59 70.0001C48.23 70.7467 49.11 71.1201 50.23 71.1201C51.35 71.1201 52.23 70.7467 52.87 70.0001C53.2967 70.1067 53.6167 70.2934 53.83 70.5601C54.0433 70.8267 54.15 71.1734 54.15 71.6001V75.2801H46.31V71.6001ZM61.51 69.0401C62.3633 69.0401 63.11 68.7201 63.75 68.0801C64.39 67.4401 64.71 66.6667 64.71 65.7601C64.71 64.8534 64.39 64.1067 63.75 63.5201C63.11 62.9334 62.3367 62.6401 61.43 62.6401C60.5233 62.6401 59.7767 62.9334 59.19 63.5201C58.6033 64.1067 58.31 64.8534 58.31 65.7601C58.31 66.6667 58.63 67.4401 59.27 68.0801C59.91 68.7201 60.6567 69.0401 61.51 69.0401ZM61.51 63.9201C61.9367 63.9201 62.3367 64.1067 62.71 64.4801C63.0833 64.8534 63.27 65.2801 63.27 65.7601C63.27 66.2401 63.0833 66.6667 62.71 67.0401C62.3367 67.4134 61.91 67.6001 61.43 67.6001C60.95 67.6001 60.5233 67.4134 60.15 67.0401C59.7767 66.6667 59.59 66.2401 59.59 65.7601C59.59 65.2801 59.7767 64.8534 60.15 64.4801C60.5233 64.1067 60.9767 63.9201 61.51 63.9201ZM56.23 71.6001V75.9201C56.23 76.1334 56.2833 76.2934 56.39 76.4001C56.4967 76.5067 56.6567 76.5601 56.87 76.5601H66.15C66.3633 76.5601 66.5233 76.5067 66.63 76.4001C66.7367 76.2934 66.79 76.1334 66.79 75.9201V71.6001C66.79 70.7467 66.4967 70.0534 65.91 69.5201C65.3233 68.9867 64.6567 68.7201 63.91 68.7201C63.6967 68.6134 63.51 68.6667 63.35 68.8801C63.19 69.0934 63.0033 69.2534 62.79 69.3601C62.2567 69.7867 61.6967 69.9467 61.11 69.8401C60.5233 69.7334 60.0167 69.4134 59.59 68.8801C59.4833 68.6667 59.3233 68.6134 59.11 68.7201C58.2567 68.6134 57.5633 68.8534 57.03 69.4401C56.4967 70.0267 56.23 70.7467 56.23 71.6001ZM57.51 71.6001C57.51 71.1734 57.6167 70.8267 57.83 70.5601C58.0433 70.2934 58.3633 70.1067 58.79 70.0001C59.43 70.6401 60.2033 71.0134 61.11 71.1201C62.0167 71.2267 62.8433 71.0134 63.59 70.4801L64.23 70.0001C64.55 70.1067 64.8433 70.2934 65.11 70.5601C65.3767 70.8267 65.51 71.1734 65.51 71.6001V75.2801H57.51V71.6001ZM72.71 69.0401C73.5633 69.0401 74.31 68.7201 74.95 68.0801C75.59 67.4401 75.91 66.6667 75.91 65.7601C75.91 64.8534 75.59 64.1067 74.95 63.5201C74.31 62.9334 73.5633 62.6401 72.71 62.6401C71.8567 62.6401 71.11 62.9334 70.47 63.5201C69.83 64.1067 69.51 64.8534 69.51 65.7601C69.51 66.6667 69.83 67.4401 70.47 68.0801C71.11 68.7201 71.8567 69.0401 72.71 69.0401ZM72.71 63.9201C73.2433 63.9201 73.67 64.1067 73.99 64.4801C74.31 64.8534 74.47 65.2801 74.47 65.7601C74.47 66.2401 74.31 66.6667 73.99 67.0401C73.67 67.4134 73.2433 67.6001 72.71 67.6001C72.1767 67.6001 71.75 67.4134 71.43 67.0401C71.11 66.6667 70.95 66.2401 70.95 65.7601C70.95 65.2801 71.11 64.8534 71.43 64.4801C71.75 64.1067 72.1767 63.9201 72.71 63.9201ZM75.11 68.7201C74.8967 68.6134 74.71 68.6667 74.55 68.8801C74.39 69.0934 74.2033 69.2534 73.99 69.3601C73.5633 69.7867 73.03 69.9467 72.39 69.8401C71.75 69.7334 71.2167 69.4134 70.79 68.8801C70.6833 68.6667 70.5233 68.6134 70.31 68.7201C69.4567 68.7201 68.7367 68.9867 68.15 69.5201C67.5633 70.0534 67.27 70.7467 67.27 71.6001V75.9201C67.27 76.1334 67.35 76.2934 67.51 76.4001C67.67 76.5067 67.8567 76.5601 68.07 76.5601H77.35C77.5633 76.5601 77.7233 76.5067 77.83 76.4001C77.9367 76.2934 77.99 76.1334 77.99 75.9201V71.6001C77.99 70.7467 77.6967 70.0267 77.11 69.4401C76.5233 68.8534 75.8567 68.6134 75.11 68.7201ZM75.43 70.0001C75.75 70.1067 76.0167 70.2934 76.23 70.5601C76.4433 70.8267 76.55 71.1734 76.55 71.6001V75.2801H68.71V71.6001C68.71 71.1734 68.8167 70.8267 69.03 70.5601C69.2433 70.2934 69.5633 70.1067 69.99 70.0001C70.7367 70.7467 71.6433 71.1201 72.71 71.1201C73.7767 71.1201 74.6833 70.7467 75.43 70.0001ZM38.47 40.5601C39.5367 40.5601 40.4433 40.1601 41.19 39.3601C41.9367 38.5601 42.31 37.6267 42.31 36.5601V35.2801C42.31 34.2134 41.9367 33.3067 41.19 32.5601C40.4433 31.8134 39.5367 31.4401 38.47 31.4401C37.4033 31.4401 36.4967 31.8134 35.75 32.5601C35.0033 33.3067 34.63 34.2134 34.63 35.2801V36.5601C34.63 37.6267 35.0033 38.5601 35.75 39.3601C36.4967 40.1601 37.4033 40.5601 38.47 40.5601ZM35.91 35.2801C35.91 34.6401 36.1767 34.0801 36.71 33.6001C37.2433 33.1201 37.8567 32.8801 38.55 32.8801C39.2433 32.8801 39.83 33.1201 40.31 33.6001C40.79 34.0801 41.03 34.6401 41.03 35.2801V36.5601C41.03 37.3067 40.79 37.9201 40.31 38.4001C39.83 38.8801 39.2433 39.1201 38.55 39.1201C37.8567 39.1201 37.2433 38.8801 36.71 38.4001C36.1767 37.9201 35.91 37.3067 35.91 36.5601V35.2801ZM29.99 54.6401C29.99 55.3867 30.23 55.9734 30.71 56.4001C31.19 56.8267 31.75 57.0401 32.39 57.0401C32.9233 57.0401 33.35 56.9334 33.67 56.7201L34.15 71.4401C34.15 71.9734 34.31 72.4534 34.63 72.8801C34.95 73.3067 35.35 73.6001 35.83 73.7601C36.31 73.9201 36.79 73.9467 37.27 73.8401C37.75 73.7334 38.2033 73.4667 38.63 73.0401C38.95 73.4667 39.3767 73.7334 39.91 73.8401C40.4433 73.9467 40.95 73.9201 41.43 73.7601C41.91 73.6001 42.31 73.3067 42.63 72.8801C42.95 72.4534 43.11 71.9734 43.11 71.4401L43.59 56.8801C43.91 57.0934 44.2833 57.2001 44.71 57.2001C45.35 57.2001 45.91 56.9601 46.39 56.4801C46.87 56.0001 47.11 55.3867 47.11 54.6401V44.8801C47.2167 43.8134 46.9233 42.8534 46.23 42.0001C45.5367 41.1467 44.6567 40.6667 43.59 40.5601H41.51C41.2967 40.5601 41.1367 40.6134 41.03 40.7201L38.63 42.9601L36.23 40.7201C36.1233 40.6134 35.9633 40.5601 35.75 40.5601H33.99C32.9233 40.5601 31.99 40.9334 31.19 41.6801C30.39 42.4267 29.99 43.3867 29.99 44.5601V44.8801V54.6401ZM40.55 72.5601C40.23 72.5601 39.9367 72.4534 39.67 72.2401C39.4033 72.0267 39.27 71.7601 39.27 71.4401V56.8801C39.27 56.7734 39.2167 56.6401 39.11 56.4801C39.0033 56.3201 38.8433 56.2401 38.63 56.2401C38.4167 56.2401 38.2567 56.3201 38.15 56.4801C38.0433 56.6401 37.99 56.7734 37.99 56.8801V71.4401C37.99 71.7601 37.8567 72.0267 37.59 72.2401C37.3233 72.4534 37.03 72.5601 36.71 72.5601C36.39 72.5601 36.0967 72.4534 35.83 72.2401C35.5633 72.0267 35.43 71.7601 35.43 71.4401L34.95 54.4801H42.15L41.67 71.4401C41.67 71.7601 41.5633 72.0267 41.35 72.2401C41.1367 72.4534 40.87 72.5601 40.55 72.5601ZM32.07 42.6401C32.6033 42.1067 33.2433 41.8401 33.99 41.8401H35.43L38.15 44.4001L41.83 41.8401H43.27C44.0167 41.8401 44.6567 42.1601 45.19 42.8001C45.7233 43.4401 45.9367 44.1334 45.83 44.8801V54.6401C45.83 54.9601 45.7233 55.2267 45.51 55.4401C45.2967 55.6534 45.03 55.7601 44.71 55.7601C44.39 55.7601 44.1233 55.6534 43.91 55.4401C43.6967 55.2267 43.59 54.9601 43.59 54.6401V48.0801C43.59 47.8667 43.5367 47.7067 43.43 47.6001C43.3233 47.4934 43.1633 47.4401 42.95 47.4401C42.7367 47.4401 42.5767 47.4934 42.47 47.6001C42.3633 47.7067 42.31 47.8667 42.31 48.0801V53.2001H34.95V48.0801C34.95 47.8667 34.87 47.7067 34.71 47.6001C34.55 47.4934 34.39 47.4401 34.23 47.4401C34.07 47.4401 33.91 47.4934 33.75 47.6001C33.59 47.7067 33.51 47.8667 33.51 48.0801V54.6401C33.51 54.9601 33.4033 55.2267 33.19 55.4401C32.9767 55.6534 32.71 55.7601 32.39 55.7601C32.1767 55.7601 31.9633 55.6534 31.75 55.4401C31.5367 55.2267 31.43 54.9601 31.43 54.6401V44.5601C31.3233 43.8134 31.5367 43.1734 32.07 42.6401ZM48.55 37.6801H49.67V51.7601C49.67 52.5067 49.9367 53.1467 50.47 53.6801C51.0033 54.2134 51.6433 54.4801 52.39 54.4801H61.03L56.39 58.6401C56.07 58.8534 55.9633 59.1201 56.07 59.4401C56.1767 59.7601 56.3633 59.9201 56.63 59.9201C56.8967 59.9201 57.0833 59.8667 57.19 59.7601L62.47 54.9601L67.75 59.7601C67.8567 59.8667 68.0167 59.9201 68.23 59.9201C68.4433 59.9201 68.6033 59.8401 68.71 59.6801C68.8167 59.5201 68.87 59.3334 68.87 59.1201C68.87 58.9067 68.8167 58.7467 68.71 58.6401L63.91 54.4801H72.55C73.2967 54.4801 73.9367 54.2134 74.47 53.6801C75.0033 53.1467 75.27 52.5067 75.27 51.7601V37.6801H76.39C76.6033 37.6801 76.7633 37.6001 76.87 37.4401C76.9767 37.2801 77.03 37.1467 77.03 37.0401V32.2401C77.03 32.0267 76.9767 31.8667 76.87 31.7601C76.7633 31.6534 76.6033 31.6001 76.39 31.6001H48.55C48.4433 31.6001 48.31 31.6534 48.15 31.7601C47.99 31.8667 47.91 32.0267 47.91 32.2401V37.0401C47.91 37.1467 47.99 37.2801 48.15 37.4401C48.31 37.6001 48.4433 37.6801 48.55 37.6801ZM73.83 51.7601C73.83 52.0801 73.6967 52.3734 73.43 52.6401C73.1633 52.9067 72.87 53.0401 72.55 53.0401H52.39C52.07 53.0401 51.7767 52.9067 51.51 52.6401C51.2433 52.3734 51.11 52.0801 51.11 51.7601V37.6801H73.83V51.7601ZM49.35 33.0401H75.75V36.2401H49.35V33.0401ZM54.15 43.1201H66.79C67.0033 43.1201 67.19 43.0401 67.35 42.8801C67.51 42.7201 67.59 42.5601 67.59 42.4001C67.59 42.2401 67.51 42.0801 67.35 41.9201C67.19 41.7601 67.0033 41.6801 66.79 41.6801H54.15C54.0433 41.6801 53.91 41.7601 53.75 41.9201C53.59 42.0801 53.51 42.2401 53.51 42.4001C53.51 42.5601 53.59 42.7201 53.75 42.8801C53.91 43.0401 54.0433 43.1201 54.15 43.1201ZM54.15 45.8401H70.79C71.0033 45.8401 71.19 45.7601 71.35 45.6001C71.51 45.4401 71.59 45.2801 71.59 45.1201C71.59 44.9601 71.51 44.8001 71.35 44.6401C71.19 44.4801 71.0033 44.4001 70.79 44.4001H54.15C54.0433 44.4001 53.91 44.4801 53.75 44.6401C53.59 44.8001 53.51 44.9601 53.51 45.1201C53.51 45.2801 53.59 45.4401 53.75 45.6001C53.91 45.7601 54.0433 45.8401 54.15 45.8401ZM54.15 48.4001H70.79C71.0033 48.4001 71.19 48.3467 71.35 48.2401C71.51 48.1334 71.59 47.9734 71.59 47.7601C71.59 47.5467 71.51 47.3867 71.35 47.2801C71.19 47.1734 71.0033 47.1201 70.79 47.1201H54.15C54.0433 47.1201 53.91 47.1734 53.75 47.2801C53.59 47.3867 53.51 47.5467 53.51 47.7601C53.51 47.9734 53.59 48.1334 53.75 48.2401C53.91 48.3467 54.0433 48.4001 54.15 48.4001Z" fill="white"/>
</g>
<rect x="0.5" y="0.5" width="107" height="107" rx="53.5" stroke="#2FC7A1" stroke-dasharray="3 2"/>
<defs>
<clipPath id="clip0_2_1037">
<rect width="48.02" height="48" fill="white" transform="matrix(1 0 0 -1 29.98 78)"/>
</clipPath>
</defs>
</svg>
