<svg width="108" height="108" viewBox="0 0 108 108" fill="none" xmlns="http://www.w3.org/2000/svg">
<rect x="9" y="9" width="90" height="90" rx="45" fill="#2FC7A1"/>
<path d="M74.95 71.9201H74.31C74.4166 69.7867 74.15 67.9201 73.51 66.3201V63.2801C73.51 61.8934 73.1366 60.6667 72.39 59.6001L68.07 52.8801C67.5366 52.0267 66.87 51.3334 66.07 50.8001C65.27 50.2667 64.39 49.9467 63.43 49.8401L57.03 48.8801V47.9201C57.8833 47.7067 58.5766 47.2534 59.11 46.5601C59.6433 45.8667 59.91 45.0934 59.91 44.2401V35.2801C59.91 34.2134 59.5633 33.3067 58.87 32.5601C58.1766 31.8134 57.2966 31.4401 56.23 31.4401H45.67C45.4566 31.4401 45.2966 31.5201 45.19 31.6801C45.0833 31.8401 45.03 32.0267 45.03 32.2401V35.2801C45.03 36.1334 45.2966 36.9067 45.83 37.6001C46.3633 38.2934 47.0566 38.7467 47.91 38.9601V44.2401C48.0166 45.0934 48.3366 45.8667 48.87 46.5601C49.4033 47.2534 50.0966 47.7067 50.95 47.9201V48.8801L49.03 49.2001C48.9233 48.5601 48.6033 48.1067 48.07 47.8401C47.5366 47.5734 47.0033 47.4934 46.47 47.6001L45.67 47.7601C45.1366 47.8667 44.6833 48.1334 44.31 48.5601C43.9366 48.9867 43.75 49.4667 43.75 50.0001C42.15 50.4267 40.87 51.3867 39.91 52.8801L35.59 59.6001C34.8433 60.6667 34.47 61.8934 34.47 63.2801V66.3201C33.83 67.9201 33.5633 69.8401 33.67 72.0801H33.03C32.8166 72.0801 32.63 72.1334 32.47 72.2401C32.31 72.3467 32.23 72.5067 32.23 72.7201V75.7601C32.23 75.9734 32.31 76.1601 32.47 76.3201C32.63 76.4801 32.8166 76.5601 33.03 76.5601H74.95C75.1633 76.5601 75.35 76.4801 75.51 76.3201C75.67 76.1601 75.75 75.9734 75.75 75.7601V72.7201C75.75 72.5067 75.67 72.3201 75.51 72.1601C75.35 72.0001 75.1633 71.9201 74.95 71.9201ZM55.43 71.9201C57.5633 69.3601 60.7633 67.6001 65.03 66.6401C67.1633 66.2134 69.35 66.0001 71.59 66.0001C72.0166 66.6401 72.3366 67.3867 72.55 68.2401C70.5233 68.3467 68.55 68.6134 66.63 69.0401C66.31 69.1467 66.0966 69.3334 65.99 69.6001C65.8833 69.8667 65.9366 70.1067 66.15 70.3201C66.3633 70.5334 66.63 70.5867 66.95 70.4801C68.87 70.0534 70.79 69.7867 72.71 69.6801C72.8166 70.4267 72.87 71.1734 72.87 71.9201H55.43ZM66.79 53.6801L71.11 60.4001C71.75 61.2534 72.0166 62.2134 71.91 63.2801V64.5601C70.4166 64.4534 68.9233 64.5067 67.43 64.7201V62.9601C67.43 62.8534 67.43 62.7467 67.43 62.6401L63.59 57.3601C63.3766 57.1467 63.1366 57.0401 62.87 57.0401C62.6033 57.0401 62.4166 57.1734 62.31 57.4401C62.2033 57.7067 62.2033 57.9467 62.31 58.1601L65.99 63.2801V64.8801L64.87 65.2001C59.9633 66.2667 56.3366 68.3467 53.99 71.4401C52.9233 69.8401 51.4833 68.5067 49.67 67.4401H50.95C51.59 67.4401 52.1233 67.2267 52.55 66.8001C52.9766 66.3734 53.19 65.8401 53.19 65.2001V62.3201C53.19 61.7867 53.0566 61.3067 52.79 60.8801C52.5233 60.4534 52.1233 60.1867 51.59 60.0801L49.35 50.6401L50.95 50.3201C51.0566 50.9601 51.3233 51.4934 51.75 51.9201C52.1766 52.3467 52.6566 52.5601 53.19 52.5601H54.79C55.3233 52.5601 55.8033 52.3467 56.23 51.9201C56.6566 51.4934 56.9233 50.9601 57.03 50.3201L63.27 51.2801C64.7633 51.6001 65.9366 52.4001 66.79 53.6801ZM49.99 59.9201H47.75L46.15 53.5201L48.39 53.0401L49.99 59.9201ZM47.27 61.5201H50.95C51.1633 61.5201 51.35 61.6001 51.51 61.7601C51.67 61.9201 51.75 62.1067 51.75 62.3201V65.2001C51.75 65.4134 51.67 65.6001 51.51 65.7601C51.35 65.9201 51.1633 66.0001 50.95 66.0001H47.27V61.5201ZM55.43 47.9201V50.3201C55.43 50.5334 55.3766 50.6934 55.27 50.8001C55.1633 50.9067 55.0033 50.9601 54.79 50.9601H53.19C52.9766 50.9601 52.8166 50.9067 52.71 50.8001C52.6033 50.6934 52.55 50.5334 52.55 50.3201V47.9201H55.43ZM46.47 35.2801V33.0401H56.23C56.87 33.0401 57.4033 33.2534 57.83 33.6801C58.2566 34.1067 58.47 34.6401 58.47 35.2801V37.5201H48.71C48.07 37.5201 47.5366 37.3067 47.11 36.8801C46.6833 36.4534 46.47 35.9201 46.47 35.2801ZM49.51 44.2401V38.9601H58.47V44.2401C58.47 44.8801 58.2566 45.4134 57.83 45.8401C57.4033 46.2667 56.87 46.4801 56.23 46.4801H51.75C51.11 46.4801 50.5766 46.2667 50.15 45.8401C49.7233 45.4134 49.51 44.8801 49.51 44.2401ZM45.51 49.5201C45.6166 49.3067 45.7766 49.2001 45.99 49.2001L46.79 49.0401C46.8966 48.9334 47.0566 48.9601 47.27 49.1201C47.4833 49.2801 47.59 49.4134 47.59 49.5201L48.07 51.6001L45.83 52.0801L45.35 50.1601C45.2433 49.9467 45.2966 49.7334 45.51 49.5201ZM36.87 60.4001L41.19 53.6801C41.9366 52.6134 42.8966 51.8667 44.07 51.4401L46.31 59.9201H43.43L44.07 58.9601C44.2833 58.6401 44.31 58.3734 44.15 58.1601C43.99 57.9467 43.7766 57.8134 43.51 57.7601C43.2433 57.7067 43.0033 57.8401 42.79 58.1601L41.35 60.4001C41.2433 60.6134 41.2433 60.8534 41.35 61.1201C41.4566 61.3867 41.67 61.5201 41.99 61.5201H45.67V65.8401C45.03 65.5201 44.2833 65.3067 43.43 65.2001C40.9766 64.6667 38.5233 64.4534 36.07 64.5601V63.2801C35.9633 62.2134 36.23 61.2534 36.87 60.4001ZM35.27 69.6801C37.19 69.7867 39.11 70.0534 41.03 70.4801C41.35 70.5867 41.6166 70.5334 41.83 70.3201C42.0433 70.1067 42.0966 69.8667 41.99 69.6001C41.8833 69.3334 41.67 69.1467 41.35 69.0401C39.43 68.6134 37.4566 68.3467 35.43 68.2401C35.6433 67.3867 35.9633 66.6401 36.39 66.0001C38.63 66.0001 40.87 66.2134 43.11 66.6401C47.4833 67.6001 50.63 69.3601 52.55 71.9201H35.11C35.11 71.1734 35.1633 70.4267 35.27 69.6801ZM74.31 74.9601H33.67V73.5201H74.31V74.9601Z" fill="white"/>
<rect x="0.5" y="0.5" width="107" height="107" rx="53.5" stroke="#2FC7A1" stroke-dasharray="3 2"/>
</svg>
