<svg width="108" height="108" viewBox="0 0 108 108" fill="none" xmlns="http://www.w3.org/2000/svg">
<rect x="9" y="9" width="90" height="90" rx="45" fill="#2FC7A1"/>
<g clip-path="url(#clip0_2_1065)">
<path d="M74.15 49.36H42.15L72.87 40.4C73.19 40.4 73.4033 40.2933 73.51 40.08C73.6167 39.8667 73.6167 39.6 73.51 39.28L71.91 33.84C71.59 32.6667 70.9767 31.7333 70.07 31.04C69.1633 30.3467 68.1233 30 66.95 30C66.4167 30 65.9367 30.0533 65.51 30.16L36.71 38.64C35.3233 38.96 34.2833 39.76 33.59 41.04C32.8967 42.32 32.71 43.6533 33.03 45.04L34.63 50.48V72.72C34.63 74.2133 35.1367 75.4667 36.15 76.48C37.1633 77.4933 38.4167 78 39.91 78H51.11C51.43 78 51.67 77.92 51.83 77.76C51.99 77.6 52.07 77.3867 52.07 77.12C52.07 76.8533 51.99 76.6133 51.83 76.4C51.67 76.1867 51.43 76.08 51.11 76.08H39.91C38.95 76.08 38.15 75.76 37.51 75.12C36.87 74.48 36.55 73.68 36.55 72.72V60.08H73.19V72.72C73.19 73.68 72.87 74.48 72.23 75.12C71.59 75.76 70.8433 76.08 69.99 76.08H58.63C58.4167 76.08 58.2033 76.1867 57.99 76.4C57.7767 76.6133 57.67 76.8533 57.67 77.12C57.67 77.3867 57.7767 77.6 57.99 77.76C58.2033 77.92 58.4167 78 58.63 78H69.99C71.3767 78 72.5767 77.4933 73.59 76.48C74.6033 75.4667 75.11 74.2133 75.11 72.72V50.32C75.11 50.1067 75.03 49.8933 74.87 49.68C74.71 49.4667 74.47 49.36 74.15 49.36ZM57.67 58.16L61.67 51.28H66.79L62.79 58.16H57.67ZM50.31 58.16L54.31 51.28H59.43L55.43 58.16H50.31ZM42.95 58.16L46.95 51.28H52.07L48.23 58.16H42.95ZM46.47 46L39.75 39.6L44.87 38.16L51.59 44.72L46.63 46.16L46.47 46ZM58.95 34.16L65.67 40.56L60.71 42L53.83 35.44L58.95 34V34.16ZM51.91 36.24L58.63 42.64L53.67 44.08L46.79 37.52L51.91 36.08V36.24ZM65.99 32.08C66.31 31.9733 66.63 31.92 66.95 31.92C67.6967 31.92 68.3633 32.1333 68.95 32.56C69.5367 32.9867 69.9367 33.5733 70.15 34.32L71.59 38.96L67.75 40.08L61.03 33.52L65.99 32.08ZM35.27 42C35.6967 41.1467 36.3367 40.6133 37.19 40.4L37.67 40.24L44.55 46.8L36.23 49.2L34.95 44.56C34.63 43.6 34.7367 42.7467 35.27 42ZM36.55 51.28H44.87L40.87 58.16H36.55V51.28ZM65.03 58.16L69.03 51.28H73.19V58.16H65.03ZM61.35 67.92C61.35 67.6 61.19 67.3333 60.87 67.12L52.71 62.48C52.39 62.2667 52.07 62.24 51.75 62.4C51.43 62.56 51.27 62.8533 51.27 63.28V72.72C51.27 73.04 51.3767 73.28 51.59 73.44C51.8033 73.6 51.99 73.68 52.15 73.68C52.31 73.68 52.4967 73.6267 52.71 73.52L60.87 68.72C61.19 68.6133 61.35 68.3467 61.35 67.92ZM53.19 71.12V64.88L58.63 67.92L53.19 71.12ZM54.95 76.08C54.63 76.08 54.39 76.1867 54.23 76.4C54.07 76.6133 53.99 76.8533 53.99 77.12C53.99 77.3867 54.07 77.6 54.23 77.76C54.39 77.92 54.6033 78 54.87 78C55.1367 78 55.3767 77.92 55.59 77.76C55.8033 77.6 55.91 77.3867 55.91 77.12C55.91 76.8533 55.8033 76.6133 55.59 76.4C55.3767 76.1867 55.1633 76.08 54.95 76.08Z" fill="white"/>
</g>
<rect x="0.5" y="0.5" width="107" height="107" rx="53.5" stroke="#2FC7A1" stroke-dasharray="3 2"/>
<defs>
<clipPath id="clip0_2_1065">
<rect width="48.02" height="48" fill="white" transform="matrix(1 0 0 -1 29.98 78)"/>
</clipPath>
</defs>
</svg>
