<svg width="108" height="108" viewBox="0 0 108 108" fill="none" xmlns="http://www.w3.org/2000/svg">
<rect x="9" y="9" width="90" height="90" rx="45" fill="#2FC7A1"/>
<g clip-path="url(#clip0_2_1051)">
<path d="M41.83 75.28H45.99C46.7367 75.28 47.2433 74.96 47.51 74.32C47.7767 73.68 47.7767 73.04 47.51 72.4C47.2433 71.76 46.7367 71.44 45.99 71.44H41.83C40.9767 71.44 40.4167 71.76 40.15 72.4C39.8833 73.04 39.8833 73.68 40.15 74.32C40.4167 74.96 40.9767 75.28 41.83 75.28ZM41.83 72.88H45.99C46.2033 72.88 46.31 73.04 46.31 73.36C46.31 73.68 46.2033 73.84 45.99 73.84H41.83C41.51 73.84 41.35 73.68 41.35 73.36C41.35 73.04 41.51 72.88 41.83 72.88ZM46.95 54.16L42.31 58.8L40.71 57.2C40.4967 56.9867 40.2833 56.9067 40.07 56.96C39.8567 57.0133 39.6967 57.1733 39.59 57.44C39.4833 57.7067 39.5367 57.9467 39.75 58.16L41.83 60.24C42.15 60.56 42.47 60.56 42.79 60.24L47.91 55.12C48.1233 54.9067 48.1767 54.6933 48.07 54.48C47.9633 54.2667 47.8033 54.1067 47.59 54C47.3767 53.8933 47.1633 53.9467 46.95 54.16ZM77.51 61.04C77.19 60.6133 76.9767 60.08 76.87 59.44C76.1233 56.56 75.0567 53.7867 73.67 51.12L71.43 46.8C71.0033 45.9467 70.3633 45.4133 69.51 45.2C68.6567 44.9867 67.8567 45.0933 67.11 45.52C66.3633 45.9467 65.8833 46.5867 65.67 47.44C64.8167 47.12 63.9633 47.1733 63.11 47.6C62.2567 48.0267 61.7233 48.6667 61.51 49.52C60.7633 49.3067 60.0433 49.3333 59.35 49.6C58.6567 49.8667 58.0967 50.32 57.67 50.96V32.72C57.67 31.9733 57.4033 31.3333 56.87 30.8C56.3367 30.2667 55.6967 30 54.95 30H38.63C38.31 30 38.0967 30.1067 37.99 30.32C37.8833 30.5333 37.8833 30.7733 37.99 31.04C38.0967 31.3067 38.31 31.44 38.63 31.44H54.95C55.3767 31.44 55.6967 31.5733 55.91 31.84C56.1233 32.1067 56.23 32.4 56.23 32.72V34.8H31.43V32.72C31.43 32.4 31.5633 32.1067 31.83 31.84C32.0967 31.5733 32.39 31.44 32.71 31.44H34.63C34.95 31.44 35.1633 31.3067 35.27 31.04C35.3767 30.7733 35.3767 30.5333 35.27 30.32C35.1633 30.1067 34.95 30 34.63 30H32.71C31.9633 30 31.3233 30.2667 30.79 30.8C30.2567 31.3333 29.99 31.9733 29.99 32.72V75.28C29.99 76.0267 30.2567 76.6667 30.79 77.2C31.3233 77.7333 31.9633 78 32.71 78H54.95C55.6967 78 56.3367 77.7333 56.87 77.2C57.4033 76.6667 57.67 76.0267 57.67 75.28V66.64L60.23 67.76C60.87 68.08 61.35 68.56 61.67 69.2C62.2033 70.3733 63.0833 71.1733 64.31 71.6C65.5367 72.0267 66.7367 71.92 67.91 71.28L72.07 69.04C72.2833 68.9333 72.39 68.7467 72.39 68.48C72.39 68.2133 72.2833 68 72.07 67.84C71.8567 67.68 71.6433 67.7067 71.43 67.92L67.27 70C66.4167 70.4267 65.5633 70.5067 64.71 70.24C63.8567 69.9733 63.2167 69.4133 62.79 68.56C62.3633 67.7067 61.7233 67.0667 60.87 66.64L50.15 61.36C49.51 61.04 49.19 60.56 49.19 59.92C49.19 59.28 49.43 58.7467 49.91 58.32C50.39 57.8933 50.95 57.84 51.59 58.16L55.59 60.08C55.8033 60.2933 56.0433 60.2667 56.31 60C56.5767 59.7333 56.6567 59.4933 56.55 59.28L49.83 46.32C49.4033 45.68 49.3767 45.0667 49.75 44.48C50.1233 43.8933 50.63 43.5733 51.27 43.52C51.91 43.4667 52.39 43.8133 52.71 44.56L58.79 55.92C58.8967 56.24 59.0833 56.4 59.35 56.4C59.6167 56.4 59.83 56.2933 59.99 56.08C60.15 55.8667 60.1233 55.6 59.91 55.28L58.79 53.04C58.5767 52.5067 58.63 52.0267 58.95 51.6C59.27 51.1733 59.6967 50.9067 60.23 50.8C60.7633 50.6933 61.19 50.8533 61.51 51.28L62.95 53.84C63.0567 54.0533 63.2433 54.16 63.51 54.16C63.7767 54.16 63.99 54.0533 64.15 53.84C64.31 53.6267 64.3367 53.4133 64.23 53.2L62.79 50.48C62.79 49.7333 63.1367 49.1733 63.83 48.8C64.5233 48.4267 65.1367 48.5067 65.67 49.04L67.11 51.6C67.2167 51.8133 67.4033 51.92 67.67 51.92C67.9367 51.92 68.15 51.8133 68.31 51.6C68.47 51.3867 68.4433 51.1733 68.23 50.96L66.95 48.4C66.8433 47.76 67.0033 47.28 67.43 46.96C67.8567 46.64 68.3633 46.5067 68.95 46.56C69.5367 46.6133 69.9367 46.9067 70.15 47.44L72.55 51.76C73.83 54.32 74.79 56.9867 75.43 59.76C75.6433 60.4 75.9367 61.0933 76.31 61.84C76.6833 62.5867 76.7367 63.36 76.47 64.16C76.2033 64.96 75.6967 65.5733 74.95 66C74.63 66.1067 74.47 66.2933 74.47 66.56C74.47 66.8267 74.5767 67.04 74.79 67.2C75.0033 67.36 75.27 67.3867 75.59 67.28C76.6567 66.7467 77.3767 65.8667 77.75 64.64C78.1233 63.4133 78.0433 62.2133 77.51 61.04ZM56.23 75.28C56.23 75.6 56.1233 75.8933 55.91 76.16C55.6967 76.4267 55.3767 76.56 54.95 76.56H32.71C32.39 76.56 32.0967 76.4267 31.83 76.16C31.5633 75.8933 31.43 75.6 31.43 75.28V70.16H56.23V75.28ZM48.07 58.32C47.8567 58.8533 47.7767 59.3867 47.83 59.92C47.8833 60.4533 48.0167 60.9867 48.23 61.52C47.0567 62.8 45.6167 63.44 43.91 63.44C42.2033 63.44 40.7367 62.8267 39.51 61.6C38.2833 60.3733 37.67 58.9067 37.67 57.2C37.67 55.4933 38.2833 54.0267 39.51 52.8C40.7367 51.5733 42.1767 50.96 43.83 50.96C45.4833 50.96 46.8967 51.52 48.07 52.64C49.2433 53.76 49.8833 55.12 49.99 56.72C49.1367 56.9333 48.4967 57.4667 48.07 58.32ZM53.19 42.96C52.87 42.64 52.4967 42.4267 52.07 42.32C51.43 42.1067 50.7633 42.16 50.07 42.48C49.3767 42.8 48.8433 43.28 48.47 43.92C48.0967 44.56 47.9633 45.2533 48.07 46H34.79C34.5767 46 34.47 45.9467 34.47 45.84V40.72C34.47 40.6133 34.5767 40.56 34.79 40.56H52.87C53.0833 40.56 53.19 40.6133 53.19 40.72V42.96ZM56.23 48.24L54.63 45.04V40.72C54.63 40.2933 54.47 39.92 54.15 39.6C53.83 39.28 53.4033 39.12 52.87 39.12H34.79C34.3633 39.12 33.99 39.28 33.67 39.6C33.35 39.92 33.19 40.2933 33.19 40.72V45.84C33.19 46.2667 33.35 46.64 33.67 46.96C33.99 47.28 34.3633 47.44 34.79 47.44H48.71L54.15 57.84L52.23 56.88C52.0167 56.7733 51.75 56.6667 51.43 56.56C51.2167 54.64 50.39 53.0133 48.95 51.68C47.51 50.3467 45.7767 49.68 43.75 49.68C41.7233 49.68 39.9633 50.4 38.47 51.84C36.9767 53.28 36.23 55.0667 36.23 57.2C36.23 59.3333 36.9767 61.12 38.47 62.56C39.9633 64 41.7767 64.72 43.91 64.72C46.0433 64.72 47.8567 63.9733 49.35 62.48C50.31 63.0133 51.8567 63.76 53.99 64.72L56.23 65.84V68.72H31.43V36.24H56.23V48.24Z" fill="white"/>
</g>
<rect x="0.5" y="0.5" width="107" height="107" rx="53.5" stroke="#2FC7A1" stroke-dasharray="3 2"/>
<defs>
<clipPath id="clip0_2_1051">
<rect width="48.02" height="48" fill="white" transform="matrix(1 0 0 -1 29.98 78)"/>
</clipPath>
</defs>
</svg>
