<svg width="15" height="17" viewBox="0 0 15 17" fill="none" xmlns="http://www.w3.org/2000/svg">
<path d="M13.8125 1.1875C14.377 1.1875 14.875 1.68555 14.875 2.2832V15C14.875 15.5977 14.377 16.0625 13.8125 16.0625H1.0293C0.464844 16.0625 0 15.5977 0 15V2.2832C0 1.68555 0.464844 1.1875 1.0293 1.1875H13.8125ZM4.48242 13.9375V6.86523H2.29102V13.9375H4.48242ZM3.38672 5.86914C4.08398 5.86914 4.64844 5.30469 4.64844 4.60742C4.64844 3.91016 4.08398 3.3125 3.38672 3.3125C2.65625 3.3125 2.0918 3.91016 2.0918 4.60742C2.0918 5.30469 2.65625 5.86914 3.38672 5.86914ZM12.75 13.9375V10.0527C12.75 8.16016 12.3184 6.66602 10.0938 6.66602C9.03125 6.66602 8.30078 7.26367 8.00195 7.82812H7.96875V6.86523H5.87695V13.9375H8.06836V10.4512C8.06836 9.52148 8.23438 8.625 9.39648 8.625C10.5254 8.625 10.5254 9.6875 10.5254 10.4844V13.9375H12.75Z" fill="white"/>
<a href="https://www.figma.com/design/Nx4sNsAeWJfmVVOXuDSmxJ/Untitled?node-id=2-828">
<rect fill="black" fill-opacity="0" y="-1.275" width="14.875" height="19.55"/>
</a>
</svg>
