<svg width="21" height="21" viewBox="0 0 21 21" fill="none" xmlns="http://www.w3.org/2000/svg">
<path d="M16.8 14.934L20.895 19.008C20.965 19.078 21 19.169 21 19.281C21 19.393 20.965 19.484 20.895 19.554L19.551 20.898C19.481 20.968 19.39 21.003 19.278 21.003C19.166 21.003 19.075 20.968 19.005 20.898L18.627 20.499L18.438 20.331C18.34 20.247 18.284 20.198 18.27 20.184L14.952 16.866C14.882 16.782 14.784 16.74 14.658 16.74C14.546 16.726 14.448 16.754 14.364 16.824C13.608 17.356 12.789 17.769 11.907 18.063C10.997 18.357 10.066 18.504 9.114 18.504C7.462 18.504 5.929 18.091 4.515 17.265C3.143 16.453 2.051 15.361 1.239 13.989C0.413 12.575 0 11.042 0 9.39C0 7.738 0.413 6.205 1.239 4.791C2.051 3.419 3.143 2.327 4.515 1.515C5.929 0.689001 7.462 0.276001 9.114 0.276001C10.766 0.276001 12.292 0.689001 13.692 1.515C15.064 2.327 16.156 3.419 16.968 4.791C17.794 6.205 18.207 7.738 18.207 9.39C18.207 11.182 17.724 12.827 16.758 14.325C16.702 14.423 16.674 14.528 16.674 14.64C16.688 14.752 16.73 14.85 16.8 14.934ZM14.616 13.632C15.078 13.03 15.435 12.372 15.687 11.658C15.939 10.93 16.065 10.174 16.065 9.39C16.065 8.13 15.75 6.961 15.12 5.883C14.504 4.819 13.671 3.979 12.621 3.363C11.543 2.733 10.374 2.418 9.114 2.418C7.854 2.418 6.685 2.733 5.607 3.363C4.543 3.979 3.703 4.819 3.087 5.883C2.457 6.961 2.142 8.13 2.142 9.39C2.142 10.65 2.457 11.819 3.087 12.897C3.703 13.961 4.543 14.801 5.607 15.417C6.685 16.047 7.854 16.362 9.114 16.362C9.954 16.362 10.759 16.222 11.529 15.942C12.299 15.648 12.992 15.235 13.608 14.703C13.986 14.381 14.322 14.024 14.616 13.632Z" fill="#17254E"/>
</svg>
