<svg width="15" height="17" viewBox="0 0 15 17" fill="none" xmlns="http://www.w3.org/2000/svg">
<path d="M14.0781 10.0859C14.5762 10.7168 14.875 11.5137 14.8418 12.3438C14.8418 14.4023 13.1816 16.0625 11.123 16.0625C10.293 16.0625 9.49609 15.7969 8.86523 15.2988C8.40039 15.3984 7.90234 15.4648 7.4043 15.4648C3.65234 15.4648 0.597656 12.4102 0.597656 8.625C0.597656 8.16016 0.664062 7.66211 0.763672 7.19727C0.265625 6.56641 0 5.76953 0 4.90625C0 2.88086 1.66016 1.1875 3.71875 1.1875C4.54883 1.1875 5.3457 1.48633 5.97656 1.98438C6.44141 1.88477 6.93945 1.81836 7.4375 1.81836C11.1895 1.81836 14.2441 4.87305 14.2441 8.625C14.2441 9.12305 14.1777 9.62109 14.0781 10.0859ZM7.63672 13.1406C9.46289 13.1406 11.3555 12.2109 11.3555 10.252C11.3555 8.55859 9.69531 7.99414 8.33398 7.69531C6.74023 7.29688 6.04297 7.23047 6.04297 6.59961C6.04297 6.06836 6.57422 5.83594 7.4375 5.83594C8.96484 5.83594 8.99805 6.96484 9.92773 6.96484C10.5586 6.96484 10.9238 6.4668 10.9238 5.90234C10.9238 4.77344 9.06445 4.04297 7.23828 4.04297C5.57812 4.04297 3.61914 4.77344 3.61914 6.76562C3.61914 8.92383 5.47852 9.12305 7.53711 9.6543C8.40039 9.85352 8.93164 9.95312 8.93164 10.584C8.93164 11.082 8.36719 11.4473 7.53711 11.4473C5.74414 11.4473 5.64453 9.95312 4.61523 9.95312C3.91797 9.95312 3.61914 10.4512 3.61914 10.9824C3.61914 12.1777 5.44531 13.1406 7.63672 13.1406Z" fill="white"/>
<a href="https://www.figma.com/design/Nx4sNsAeWJfmVVOXuDSmxJ/Untitled?node-id=2-828">
<rect fill="black" fill-opacity="0" y="-1.275" width="14.875" height="19.55"/>
</a>
</svg>
